<?xml version="1.0" encoding="UTF-8"?>
<svg id="Layer_1" data-name="Layer 1" xmlns="http://www.w3.org/2000/svg" viewBox="0 0 1335 1080">
  <defs>
    <style>
      .cls-1 {
        fill: #5c919d;
      }

      .cls-1, .cls-2, .cls-3, .cls-4, .cls-5 {
        stroke-width: 0px;
      }

      .cls-2 {
        fill: #58b880;
      }

      .cls-3 {
        fill: #93c991;
      }

      .cls-4 {
        fill: #13363e;
      }

      .cls-5 {
        fill: #fff;
      }
    </style>
  </defs>
  <g>
    <path class="cls-5" d="M755.75,469.15c-29.92,0-53.17-14.3-54.7-43.09h39.83c.76,10.11,6.67,13.54,13.53,13.54s11.82-3.43,11.82-9.72c-.19-21.54-65.37-11.44-64.8-58.15,0-26.31,21.92-40.42,50.32-40.42,30.88,0,51.08,15.06,52.41,41.75h-40.6c-.38-8.39-5.53-12.2-12.39-12.2-5.53-.19-9.91,3.05-9.91,9.53,0,20.02,64.61,13.54,64.61,56.62,0,23.64-18.3,42.13-50.13,42.13Z"/>
    <path class="cls-5" d="M826.52,391.93h-13.15v-31.07h13.15v-25.93h37.55v25.93h19.44v31.07h-19.44v35.84c0,5.72,2.48,8.2,8.77,8.2h10.86v31.84h-16.2c-23.63,0-40.98-9.91-40.98-40.61v-35.27Z"/>
    <path class="cls-5" d="M947.52,469.15c-31.83,0-55.85-20.78-55.85-54.91s24.2-54.72,56.03-54.72,56.03,20.78,56.03,54.72-24.4,54.91-56.22,54.91ZM947.52,436.73c9.53,0,18.3-7.05,18.3-22.49s-8.58-22.31-18.11-22.31-17.92,7.05-17.92,22.31,8,22.49,17.73,22.49Z"/>
    <path class="cls-5" d="M1125.97,467.81h-37.55v-15.25c-6.1,9.15-17.34,16.2-32.4,16.2-24.78,0-40.21-17.54-40.21-45.76v-62.15h37.16v57.38c0,12.39,7.05,19.64,17.73,19.64s17.73-7.25,17.73-19.64v-57.38h37.55v106.95Z"/>
    <path class="cls-5" d="M1182.64,467.81h-37.36v-106.95h37.36v18.87c8-11.63,20.2-19.83,34.5-19.83v39.85h-10.48c-15.44,0-24.01,4.96-24.01,21.35v46.71Z"/>
    <path class="cls-5" d="M828.37,629.28c0,38.89-27.26,67.3-70.14,67.3h-53.18v-134.41h53.18c42.88,0,70.14,27.64,70.14,67.11ZM755.37,663.6c21.54,0,35.07-12.2,35.07-34.32s-13.53-34.7-35.07-34.7h-12.96v69.01h12.96Z"/>
    <path class="cls-5" d="M841,560.65c0-10.87,8.58-19.44,21.92-19.44s21.73,8.58,21.73,19.44-8.58,19.06-21.73,19.06-21.92-8.39-21.92-19.06ZM844.05,589.63h37.36v106.95h-37.36v-106.95Z"/>
    <path class="cls-5" d="M939.95,588.29c15.06,0,25.92,6.67,31.45,16.21v-14.87h37.36v105.81c0,28.6-15.63,53.76-54.13,53.76-33.35,0-53.94-16.78-56.61-43.28h36.78c1.52,6.86,8,10.87,17.53,10.87,10.48,0,19.06-4.77,19.06-21.35v-13.73c-5.53,9.53-16.39,16.2-31.45,16.2-25.35,0-45.55-20.78-45.55-54.91s20.2-54.72,45.55-54.72ZM951.96,620.89c-10.67,0-19.44,7.63-19.44,22.12s8.77,22.31,19.44,22.31,19.44-7.82,19.44-22.31-8.96-22.12-19.44-22.12Z"/>
    <path class="cls-5" d="M1025.22,560.65c0-10.87,8.58-19.44,21.92-19.44s21.73,8.58,21.73,19.44-8.58,19.06-21.73,19.06-21.92-8.39-21.92-19.06ZM1028.27,589.63h37.36v106.95h-37.36v-106.95Z"/>
    <path class="cls-5" d="M1089.81,620.7h-13.15v-31.08h13.15v-25.93h37.55v25.93h19.44v31.08h-19.44v35.84c0,5.72,2.48,8.2,8.77,8.2h10.86v31.84h-16.2c-23.63,0-40.98-9.91-40.98-40.61v-35.27Z"/>
    <path class="cls-5" d="M1201.02,588.29c15.25,0,25.92,6.67,31.45,16.21v-14.87h37.36v106.95h-37.36v-14.87c-5.53,9.53-16.39,16.2-31.45,16.2-25.35,0-45.55-20.78-45.55-54.91s20.2-54.72,45.55-54.72ZM1213.03,620.89c-10.67,0-19.44,7.63-19.44,22.12s8.77,22.31,19.44,22.31,19.44-7.82,19.44-22.31-8.96-22.12-19.44-22.12Z"/>
    <path class="cls-5" d="M1289.14,555.5h37.36v141.08h-37.36v-141.08Z"/>
  </g>
  <g>
    <path class="cls-5" d="M583.71,182.89c-15.08-35.66-36.66-67.68-64.15-95.18-27.49-27.5-59.51-49.09-95.15-64.17C387.49,7.92,348.28,0,307.87,0s-79.62,7.92-116.53,23.54c-35.65,15.08-67.66,36.67-95.15,64.17-27.49,27.5-49.07,59.52-64.15,95.18-15.61,36.92-23.53,76.14-23.53,116.56v481.09c0,40.42,7.92,79.64,23.53,116.56,15.08,35.66,36.66,67.68,64.15,95.18,27.49,27.5,59.51,49.09,95.15,64.17,36.91,15.62,76.12,23.54,116.53,23.54s79.62-7.92,116.53-23.54c35.65-15.08,67.66-36.67,95.15-64.17,27.49-27.5,49.07-59.52,64.15-95.18,15.61-36.92,23.53-76.14,23.53-116.56v-481.09c0-40.42-7.92-79.64-23.53-116.56Z"/>
    <g>
      <path class="cls-1" d="M170.76,571.04c-48.85,20.93-99.28,42.57-152.87,46.43v-318.45c0-15.15,1.16-30.05,3.45-44.57,20.64-1.02,42.23.58,64.8,4.83,82.78,15.55,166.58,62.48,247.67,107.87,64.01,35.85,124.82,69.89,178.95,84.2-86.18,68.39-163.55,79.61-204.89,79.61-43.68,0-89.05,19.46-137.11,40.08Z"/>
      <path class="cls-3" d="M24.87,235.81C53.79,106.64,169.52,10.12,307.87,10.12c80.09,0,152.58,32.33,205.04,84.6,32.85,32.72,57.84,73.25,71.97,118.55-22.83-8.88-45.9-13.84-69.31-14.94-68.25-3.23-128.46,26.5-181.58,52.74-38.81,19.17-75.5,37.27-107.72,38.03-45.18-21.62-90.87-39.26-136.71-47.88-22.46-4.23-44-6.04-64.69-5.41Z"/>
      <path class="cls-2" d="M597.85,299.02v65.19c-14.89,19.7-31.5,38.45-48.06,54.52-6.49,6.3-12.94,12.24-19.38,17.86-54.68-11.06-119.29-47.22-187.57-85.46-28.89-16.15-58.13-32.51-87.6-47.64,27.79-6.75,56.76-21.04,86.94-35.96,51.09-25.24,109.03-53.87,172.51-50.85,25.68,1.21,50.98,7.56,76.16,19.15,4.59,20.33,6.99,41.5,6.99,63.19Z"/>
      <path class="cls-2" d="M562.69,431.92c12.52-12.16,24.31-24.9,35.17-37.87v199.08c-48.19-8.56-86.23-20.25-121.77-31.15-29.53-9.06-58.13-17.83-89.63-23.72,79.35-22.19,141.75-72.91,176.23-106.34Z"/>
      <path class="cls-4" d="M309.58,898.63c-59.42,41.34-129.33,64.37-196.82,90.69-1.42.55-2.85,1.13-4.3,1.68-55.78-52.63-90.58-127.12-90.58-209.72v-145.37c57.15-3.78,109.48-26.24,160.18-48.01,46.27-19.83,89.95-38.56,129.81-38.56,34.27,0,63.24,3.97,90.79,10.16-17.9,16.36-37.38,31.18-57.47,44.62-64.11,42.89-135.32,75.01-196.87,121.47-16.08,12.16-32.74,27.76-33.37,47.85-.82,25.21,24.31,43.91,48.77,50.37,48.19,12.69,100.86-3.68,148.52,10.87,10.62,3.23,21.7,8.9,25.76,19.23,6.72,17.1-9.28,34.2-24.41,44.7Z"/>
      <path class="cls-4" d="M597.85,611.83v169.45c0,159.55-129.83,288.9-289.98,288.9-57.65,0-111.41-16.76-156.54-45.67,113.2-27.39,227.77-50.69,322.78-115.72,17.19-11.77,33.93-25.21,44.31-43.23,10.39-18.02,13.37-41.47,2.85-59.41-9.52-16.28-28.34-25.27-47-28.15-18.69-2.89-37.72-.58-56.6.6-23.25,1.44-46.63,1.16-69.83-.84-18.27-1.58-39.36-6.22-47.24-22.69-8.96-18.75,4.72-40.05,18.4-55.71,35.77-40.92,76.56-77.53,109.38-120.84,2.29-3.05,4.64-6.22,7.04-9.53,11.57,3.31,23.23,6.88,35.25,10.56,36.96,11.35,76.58,23.51,127.2,32.28Z"/>
    </g>
  </g>
</svg>